{
    "asset" : {
        "generator" : "Khronos glTF Blender I/O v1.6.16",
        "version" : "2.0"
    },
    "scene" : 0,
    "scenes" : [
        {
            "name" : "Scene",
            "nodes" : [
                0,
                1,
                5,
                8
            ]
        }
    ],
    "nodes" : [
        {
            "name" : "Light",
            "rotation" : [
                0.16907575726509094,
                0.7558803558349609,
                -0.27217137813568115,
                0.570947527885437
            ],
            "translation" : [
                4.076245307922363,
                5.903861999511719,
                -1.0054539442062378
            ]
        },
        {
            "name" : "Camera",
            "rotation" : [
                0.483536034822464,
                0.33687159419059753,
                -0.20870360732078552,
                0.7804827094078064
            ],
            "translation" : [
                7.358891487121582,
                4.958309173583984,
                6.925790786743164
            ]
        },
        {
            "mesh" : 0,
            "name" : "Body10",
            "scale" : [
                10,
                10,
                10
            ]
        },
        {
            "mesh" : 1,
            "name" : "Body14",
            "scale" : [
                10,
                10,
                10
            ]
        },
        {
            "mesh" : 2,
            "name" : "Body15",
            "scale" : [
                10,
                10,
                10
            ]
        },
        {
            "children" : [
                2,
                3,
                4
            ],
            "name" : "hinge front v3 v1",
            "rotation" : [
                0.7071068286895752,
                0,
                0,
                0.7071067094802856
            ],
            "scale" : [
                0.0010000000474974513,
                0.0010000000474974513,
                0.0010000000474974513
            ],
            "translation" : [
                -0.042042214423418045,
                0.05924547463655472,
                0
            ]
        },
        {
            "mesh" : 3,
            "name" : "Body5",
            "rotation" : [
                0,
                0,
                0.9999788403511047,
                -0.006503102835267782
            ],
            "scale" : [
                10,
                10,
                10
            ],
            "translation" : [
                -37.18174743652344,
                0,
                -3.449852228164673
            ]
        },
        {
            "mesh" : 4,
            "name" : "Body6",
            "rotation" : [
                0,
                0,
                0.9999788403511047,
                -0.006503102835267782
            ],
            "scale" : [
                10,
                10,
                10
            ],
            "translation" : [
                -37.18174743652344,
                0,
                -3.449852228164673
            ]
        },
        {
            "children" : [
                6,
                7
            ],
            "name" : "back hinge split pad v9",
            "rotation" : [
                -0.7071068286895752,
                0,
                0,
                0.7071067094802856
            ],
            "scale" : [
                0.0010000000474974513,
                0.0010000000474974513,
                -0.0010000000474974513
            ],
            "translation" : [
                -0.042042214423418045,
                0.05924547463655472,
                0
            ]
        }
    ],
    "materials" : [
        {
            "doubleSided" : true,
            "name" : "Nylon 12 (with Formlabs Fuse 1 3D Printer).001",
            "pbrMetallicRoughness" : {
                "baseColorFactor" : [
                    0.1094617024064064,
                    0.1094617024064064,
                    0.1094617024064064,
                    1
                ],
                "roughnessFactor" : 0.5527864098548889
            }
        },
        {
            "doubleSided" : true,
            "name" : "Rubber - Soft",
            "pbrMetallicRoughness" : {
                "baseColorFactor" : [
                    0.15294118225574493,
                    0.15294118225574493,
                    0.15294118225574493,
                    1
                ],
                "roughnessFactor" : 0.5527864098548889
            }
        },
        {
            "doubleSided" : true,
            "name" : "Aluminum - Anodized Glossy (Blue).002",
            "pbrMetallicRoughness" : {
                "baseColorFactor" : [
                    0,
                    0,
                    0,
                    1
                ],
                "metallicFactor" : 1,
                "roughnessFactor" : 0.5527864098548889
            }
        },
        {
            "doubleSided" : true,
            "name" : "Rubber - Soft.003",
            "pbrMetallicRoughness" : {
                "baseColorFactor" : [
                    0.15294118225574493,
                    0.15294118225574493,
                    0.15294118225574493,
                    1
                ],
                "roughnessFactor" : 0.5527864098548889
            }
        },
        {
            "doubleSided" : true,
            "name" : "Aluminum - Anodized Glossy (Blue).003",
            "pbrMetallicRoughness" : {
                "baseColorFactor" : [
                    0,
                    0,
                    0,
                    1
                ],
                "metallicFactor" : 1,
                "roughnessFactor" : 0.5527864098548889
            }
        }
    ],
    "meshes" : [
        {
            "name" : "Body10.001",
            "primitives" : [
                {
                    "attributes" : {
                        "POSITION" : 0,
                        "NORMAL" : 1,
                        "TEXCOORD_0" : 2
                    },
                    "indices" : 3,
                    "material" : 0
                }
            ]
        },
        {
            "name" : "Body14.001",
            "primitives" : [
                {
                    "attributes" : {
                        "POSITION" : 4,
                        "NORMAL" : 5,
                        "TEXCOORD_0" : 6
                    },
                    "indices" : 7,
                    "material" : 1
                }
            ]
        },
        {
            "name" : "Body15.001",
            "primitives" : [
                {
                    "attributes" : {
                        "POSITION" : 8,
                        "NORMAL" : 9,
                        "TEXCOORD_0" : 10
                    },
                    "indices" : 11,
                    "material" : 2
                }
            ]
        },
        {
            "name" : "Body5.001",
            "primitives" : [
                {
                    "attributes" : {
                        "POSITION" : 12,
                        "NORMAL" : 13,
                        "TEXCOORD_0" : 14
                    },
                    "indices" : 15,
                    "material" : 3
                }
            ]
        },
        {
            "name" : "Body6",
            "primitives" : [
                {
                    "attributes" : {
                        "POSITION" : 16,
                        "NORMAL" : 17,
                        "TEXCOORD_0" : 18
                    },
                    "indices" : 19,
                    "material" : 4
                }
            ]
        }
    ],
    "accessors" : [
        {
            "bufferView" : 0,
            "componentType" : 5126,
            "count" : 1018,
            "max" : [
                15.345780372619629,
                7.099999904632568,
                4.896294593811035
            ],
            "min" : [
                7.711732864379883,
                6.699999809265137,
                -0.16126327216625214
            ],
            "type" : "VEC3"
        },
        {
            "bufferView" : 1,
            "componentType" : 5126,
            "count" : 1018,
            "type" : "VEC3"
        },
        {
            "bufferView" : 2,
            "componentType" : 5126,
            "count" : 1018,
            "type" : "VEC2"
        },
        {
            "bufferView" : 3,
            "componentType" : 5123,
            "count" : 3588,
            "type" : "SCALAR"
        },
        {
            "bufferView" : 4,
            "componentType" : 5126,
            "count" : 7167,
            "max" : [
                16.476171493530273,
                7.099999904632568,
                5.820332050323486
            ],
            "min" : [
                3.2382140159606934,
                0,
                -14.39267349243164
            ],
            "type" : "VEC3"
        },
        {
            "bufferView" : 5,
            "componentType" : 5126,
            "count" : 7167,
            "type" : "VEC3"
        },
        {
            "bufferView" : 6,
            "componentType" : 5126,
            "count" : 7167,
            "type" : "VEC2"
        },
        {
            "bufferView" : 7,
            "componentType" : 5123,
            "count" : 33258,
            "type" : "SCALAR"
        },
        {
            "bufferView" : 8,
            "componentType" : 5126,
            "count" : 778,
            "max" : [
                14.8473482131958,
                7.099999904632568,
                4.398623466491699
            ],
            "min" : [
                8.210165023803711,
                6.900000095367432,
                0.3364076316356659
            ],
            "type" : "VEC3"
        },
        {
            "bufferView" : 9,
            "componentType" : 5126,
            "count" : 778,
            "type" : "VEC3"
        },
        {
            "bufferView" : 10,
            "componentType" : 5126,
            "count" : 778,
            "type" : "VEC2"
        },
        {
            "bufferView" : 11,
            "componentType" : 5123,
            "count" : 2760,
            "type" : "SCALAR"
        },
        {
            "bufferView" : 12,
            "componentType" : 5126,
            "count" : 6819,
            "max" : [
                3.6802220344543457,
                7.050000190734863,
                4.092668533325195
            ],
            "min" : [
                -8.342137336730957,
                -1.1102230246251565e-16,
                -14.109533309936523
            ],
            "type" : "VEC3"
        },
        {
            "bufferView" : 13,
            "componentType" : 5126,
            "count" : 6819,
            "type" : "VEC3"
        },
        {
            "bufferView" : 14,
            "componentType" : 5126,
            "count" : 6819,
            "type" : "VEC2"
        },
        {
            "bufferView" : 15,
            "componentType" : 5123,
            "count" : 31704,
            "type" : "SCALAR"
        },
        {
            "bufferView" : 16,
            "componentType" : 5126,
            "count" : 210,
            "max" : [
                1.4269758462905884,
                7,
                3.2678415775299072
            ],
            "min" : [
                0.12831342220306396,
                6.599999904632568,
                -0.4232518970966339
            ],
            "type" : "VEC3"
        },
        {
            "bufferView" : 17,
            "componentType" : 5126,
            "count" : 210,
            "type" : "VEC3"
        },
        {
            "bufferView" : 18,
            "componentType" : 5126,
            "count" : 210,
            "type" : "VEC2"
        },
        {
            "bufferView" : 19,
            "componentType" : 5123,
            "count" : 720,
            "type" : "SCALAR"
        }
    ],
    "bufferViews" : [
        {
            "buffer" : 0,
            "byteLength" : 12216,
            "byteOffset" : 0
        },
        {
            "buffer" : 0,
            "byteLength" : 12216,
            "byteOffset" : 12216
        },
        {
            "buffer" : 0,
            "byteLength" : 8144,
            "byteOffset" : 24432
        },
        {
            "buffer" : 0,
            "byteLength" : 7176,
            "byteOffset" : 32576
        },
        {
            "buffer" : 0,
            "byteLength" : 86004,
            "byteOffset" : 39752
        },
        {
            "buffer" : 0,
            "byteLength" : 86004,
            "byteOffset" : 125756
        },
        {
            "buffer" : 0,
            "byteLength" : 57336,
            "byteOffset" : 211760
        },
        {
            "buffer" : 0,
            "byteLength" : 66516,
            "byteOffset" : 269096
        },
        {
            "buffer" : 0,
            "byteLength" : 9336,
            "byteOffset" : 335612
        },
        {
            "buffer" : 0,
            "byteLength" : 9336,
            "byteOffset" : 344948
        },
        {
            "buffer" : 0,
            "byteLength" : 6224,
            "byteOffset" : 354284
        },
        {
            "buffer" : 0,
            "byteLength" : 5520,
            "byteOffset" : 360508
        },
        {
            "buffer" : 0,
            "byteLength" : 81828,
            "byteOffset" : 366028
        },
        {
            "buffer" : 0,
            "byteLength" : 81828,
            "byteOffset" : 447856
        },
        {
            "buffer" : 0,
            "byteLength" : 54552,
            "byteOffset" : 529684
        },
        {
            "buffer" : 0,
            "byteLength" : 63408,
            "byteOffset" : 584236
        },
        {
            "buffer" : 0,
            "byteLength" : 2520,
            "byteOffset" : 647644
        },
        {
            "buffer" : 0,
            "byteLength" : 2520,
            "byteOffset" : 650164
        },
        {
            "buffer" : 0,
            "byteLength" : 1680,
            "byteOffset" : 652684
        },
        {
            "buffer" : 0,
            "byteLength" : 1440,
            "byteOffset" : 654364
        }
    ],
    "buffers" : [
        {
            "byteLength" : 655804,
            "uri" : "data:application/octet-stream;base64,"
        }
    ]
}
