<svg xmlns="http://www.w3.org/2000/svg" viewBox="851.8 -437.6 1395.9 1435.2" xml:space="preserve">
  <path d="M2131.8 414.6v15.5c-4.6 184.2-98.1 357.6-249.8 463.4-98.1 68.3-213.1 104.3-332.8 104.3-24.3 0-49-1.5-73-4.6-24.7-3.1-49.4-7.7-73-13.9-72.6-18.5-140.2-51-199.6-95 61.4 18.9 125.5 28.6 191.1 28.6 134 0 263-40.5 372.6-117 128.6-89.6 220.5-222 259.5-372.6l.4-1.2 15.1-79.5v-1.2c3.5-26.6 5-54.1 5-81.5 0-107.3-25.9-211.2-75.3-304.7 100.4 125.9 156.8 280.7 160.2 444v6.2c-.4 2.6-.4 5.7-.4 9.2z"/>
  <path d="M2156.1 606.1c27-71.4 41.7-149 41.7-230.1 0-359.9-290.8-651.4-649.5-651.4S898.9 16.5 898.9 376c0 75.3 12.7 147.9 36.3 215.5-53.3-98.5-83.4-211.2-83.4-331.3 0-385.4 312.4-697.7 698.1-697.7 385.4 0 697.7 312.4 697.7 697.7.4 125.8-33.2 243.9-91.5 345.9z"/>
</svg>