{
    "asset" : {
        "generator" : "Khronos glTF Blender I/O v1.6.16",
        "version" : "2.0"
    },
    "scene" : 0,
    "scenes" : [
        {
            "name" : "Scene",
            "nodes" : [
                0,
                1,
                10
            ]
        }
    ],
    "nodes" : [
        {
            "name" : "Light",
            "rotation" : [
                0.16907575726509094,
                0.7558803558349609,
                -0.27217137813568115,
                0.570947527885437
            ],
            "translation" : [
                4.076245307922363,
                5.903861999511719,
                -1.0054539442062378
            ]
        },
        {
            "name" : "Camera",
            "rotation" : [
                0.483536034822464,
                0.33687159419059753,
                -0.20870360732078552,
                0.7804827094078064
            ],
            "translation" : [
                7.358891487121582,
                4.958309173583984,
                6.925790786743164
            ]
        },
        {
            "mesh" : 0,
            "name" : "Body17.001",
            "scale" : [
                10,
                10,
                10
            ]
        },
        {
            "mesh" : 1,
            "name" : "Body19.001",
            "scale" : [
                10,
                10,
                10
            ]
        },
        {
            "mesh" : 2,
            "name" : "Body1.002",
            "scale" : [
                10,
                10,
                10
            ]
        },
        {
            "children" : [
                4
            ],
            "name" : "Component10.001"
        },
        {
            "children" : [
                5
            ],
            "name" : "Component10:1.001"
        },
        {
            "mesh" : 3,
            "name" : "Body1.003",
            "scale" : [
                10,
                10,
                10
            ]
        },
        {
            "children" : [
                7
            ],
            "name" : "Component11.001"
        },
        {
            "children" : [
                8
            ],
            "name" : "Component11:1.001"
        },
        {
            "children" : [
                2,
                3,
                6,
                9
            ],
            "name" : "onepiece v3 v10",
            "rotation" : [
                0.7071068286895752,
                0,
                0,
                0.7071067094802856
            ],
            "scale" : [
                0.0010000000474974513,
                0.0010000000474974513,
                0.0010000000474974513
            ],
            "translation" : [
                -0.14075356721878052,
                0.030358606949448586,
                0
            ]
        }
    ],
    "materials" : [
        {
            "doubleSided" : true,
            "name" : "Rubber - Soft",
            "pbrMetallicRoughness" : {
                "baseColorFactor" : [
                    0.15294118225574493,
                    0.15294118225574493,
                    0.15294118225574493,
                    1
                ],
                "roughnessFactor" : 0.5527864098548889
            }
        },
        {
            "doubleSided" : true,
            "name" : "Aluminum - Anodized Glossy (Blue).001",
            "pbrMetallicRoughness" : {
                "baseColorFactor" : [
                    0.3139885663986206,
                    0.8631573915481567,
                    1,
                    1
                ],
                "metallicFactor" : 1,
                "roughnessFactor" : 0.5527864098548889
            }
        }
    ],
    "meshes" : [
        {
            "name" : "Body17.001",
            "primitives" : [
                {
                    "attributes" : {
                        "POSITION" : 0,
                        "NORMAL" : 1,
                        "TEXCOORD_0" : 2
                    },
                    "indices" : 3,
                    "material" : 0
                }
            ]
        },
        {
            "name" : "Body19.001",
            "primitives" : [
                {
                    "attributes" : {
                        "POSITION" : 4,
                        "NORMAL" : 5,
                        "TEXCOORD_0" : 6
                    },
                    "indices" : 7,
                    "material" : 1
                }
            ]
        },
        {
            "name" : "Body1.002",
            "primitives" : [
                {
                    "attributes" : {
                        "POSITION" : 8,
                        "NORMAL" : 9,
                        "TEXCOORD_0" : 10
                    },
                    "indices" : 11,
                    "material" : 1
                }
            ]
        },
        {
            "name" : "Body1.003",
            "primitives" : [
                {
                    "attributes" : {
                        "POSITION" : 12,
                        "NORMAL" : 13,
                        "TEXCOORD_0" : 14
                    },
                    "indices" : 15,
                    "material" : 0
                }
            ]
        }
    ],
    "accessors" : [
        {
            "bufferView" : 0,
            "componentType" : 5126,
            "count" : 11062,
            "max" : [
                26.697830200195312,
                7.050000190734863,
                2.832374095916748
            ],
            "min" : [
                1.7664642333984375,
                0,
                -18.726402282714844
            ],
            "type" : "VEC3"
        },
        {
            "bufferView" : 1,
            "componentType" : 5126,
            "count" : 11062,
            "type" : "VEC3"
        },
        {
            "bufferView" : 2,
            "componentType" : 5126,
            "count" : 11062,
            "type" : "VEC2"
        },
        {
            "bufferView" : 3,
            "componentType" : 5123,
            "count" : 50844,
            "type" : "SCALAR"
        },
        {
            "bufferView" : 4,
            "componentType" : 5126,
            "count" : 250,
            "max" : [
                5.643658638000488,
                7.055983543395996,
                -0.9186913371086121
            ],
            "min" : [
                4.344338893890381,
                6.855983734130859,
                -3.990302562713623
            ],
            "type" : "VEC3"
        },
        {
            "bufferView" : 5,
            "componentType" : 5126,
            "count" : 250,
            "type" : "VEC3"
        },
        {
            "bufferView" : 6,
            "componentType" : 5126,
            "count" : 250,
            "type" : "VEC2"
        },
        {
            "bufferView" : 7,
            "componentType" : 5123,
            "count" : 840,
            "type" : "SCALAR"
        },
        {
            "bufferView" : 8,
            "componentType" : 5126,
            "count" : 778,
            "max" : [
                25.060693740844727,
                7.051000118255615,
                1.5091986656188965
            ],
            "min" : [
                18.423511505126953,
                6.85099983215332,
                -2.5530171394348145
            ],
            "type" : "VEC3"
        },
        {
            "bufferView" : 9,
            "componentType" : 5126,
            "count" : 778,
            "type" : "VEC3"
        },
        {
            "bufferView" : 10,
            "componentType" : 5126,
            "count" : 778,
            "type" : "VEC2"
        },
        {
            "bufferView" : 11,
            "componentType" : 5123,
            "count" : 2760,
            "type" : "SCALAR"
        },
        {
            "bufferView" : 12,
            "componentType" : 5126,
            "count" : 1018,
            "max" : [
                25.559125900268555,
                7.051000118255615,
                2.0068695545196533
            ],
            "min" : [
                17.925079345703125,
                6.650000095367432,
                -3.0506880283355713
            ],
            "type" : "VEC3"
        },
        {
            "bufferView" : 13,
            "componentType" : 5126,
            "count" : 1018,
            "type" : "VEC3"
        },
        {
            "bufferView" : 14,
            "componentType" : 5126,
            "count" : 1018,
            "type" : "VEC2"
        },
        {
            "bufferView" : 15,
            "componentType" : 5123,
            "count" : 3588,
            "type" : "SCALAR"
        }
    ],
    "bufferViews" : [
        {
            "buffer" : 0,
            "byteLength" : 132744,
            "byteOffset" : 0
        },
        {
            "buffer" : 0,
            "byteLength" : 132744,
            "byteOffset" : 132744
        },
        {
            "buffer" : 0,
            "byteLength" : 88496,
            "byteOffset" : 265488
        },
        {
            "buffer" : 0,
            "byteLength" : 101688,
            "byteOffset" : 353984
        },
        {
            "buffer" : 0,
            "byteLength" : 3000,
            "byteOffset" : 455672
        },
        {
            "buffer" : 0,
            "byteLength" : 3000,
            "byteOffset" : 458672
        },
        {
            "buffer" : 0,
            "byteLength" : 2000,
            "byteOffset" : 461672
        },
        {
            "buffer" : 0,
            "byteLength" : 1680,
            "byteOffset" : 463672
        },
        {
            "buffer" : 0,
            "byteLength" : 9336,
            "byteOffset" : 465352
        },
        {
            "buffer" : 0,
            "byteLength" : 9336,
            "byteOffset" : 474688
        },
        {
            "buffer" : 0,
            "byteLength" : 6224,
            "byteOffset" : 484024
        },
        {
            "buffer" : 0,
            "byteLength" : 5520,
            "byteOffset" : 490248
        },
        {
            "buffer" : 0,
            "byteLength" : 12216,
            "byteOffset" : 495768
        },
        {
            "buffer" : 0,
            "byteLength" : 12216,
            "byteOffset" : 507984
        },
        {
            "buffer" : 0,
            "byteLength" : 8144,
            "byteOffset" : 520200
        },
        {
            "buffer" : 0,
            "byteLength" : 7176,
            "byteOffset" : 528344
        }
    ],
    "buffers" : [
        {
            "byteLength" : 535520,
            "uri" : "data:application/octet-stream;base64,"
        }
    ]
}
